<mxfile host="app.diagrams.net" modified="2021-05-19T08:31:04.169Z" agent="5.0 (Windows NT 10.0; Win64; x64) AppleWebKit/537.36 (KHTML, like Gecko) Chrome/89.0.4389.82 Safari/537.36" etag="V2zpzpMDkf-nFR7kiVUf" version="14.6.13" type="github">
  <diagram id="vtEZIhlIu9kBBHUHX4O-" name="Page-1">
    <mxGraphModel dx="1483" dy="2005" grid="1" gridSize="10" guides="1" tooltips="1" connect="1" arrows="1" fold="1" page="1" pageScale="1" pageWidth="827" pageHeight="1169" math="0" shadow="0">
      <root>
        <mxCell id="0" />
        <mxCell id="1" parent="0" />
        <mxCell id="UiscjDEskWGPPMpx3GH2-1" value="" style="group;rotation=90;" vertex="1" connectable="0" parent="1">
          <mxGeometry x="-90" y="60" width="650" height="310" as="geometry" />
        </mxCell>
        <mxCell id="F2HogwjRQ6rcZ85QxDof-2" value="on_off_state" style="ellipse;whiteSpace=wrap;html=1;aspect=fixed;rotation=0;" parent="UiscjDEskWGPPMpx3GH2-1" vertex="1">
          <mxGeometry x="280" y="-170" width="90" height="90" as="geometry" />
        </mxCell>
        <mxCell id="UiscjDEskWGPPMpx3GH2-4" style="edgeStyle=orthogonalEdgeStyle;rounded=0;orthogonalLoop=1;jettySize=auto;html=1;exitX=0.5;exitY=1;exitDx=0;exitDy=0;" edge="1" parent="UiscjDEskWGPPMpx3GH2-1" source="F2HogwjRQ6rcZ85QxDof-16" target="F2HogwjRQ6rcZ85QxDof-17">
          <mxGeometry relative="1" as="geometry" />
        </mxCell>
        <mxCell id="F2HogwjRQ6rcZ85QxDof-16" value="Proc_Used_Pct" style="ellipse;whiteSpace=wrap;html=1;aspect=fixed;rotation=0;" parent="UiscjDEskWGPPMpx3GH2-1" vertex="1">
          <mxGeometry x="280" y="20" width="90" height="90" as="geometry" />
        </mxCell>
        <mxCell id="F2HogwjRQ6rcZ85QxDof-20" style="edgeStyle=orthogonalEdgeStyle;rounded=0;orthogonalLoop=1;jettySize=auto;html=1;exitX=0.5;exitY=1;exitDx=0;exitDy=0;" parent="UiscjDEskWGPPMpx3GH2-1" source="F2HogwjRQ6rcZ85QxDof-2" target="F2HogwjRQ6rcZ85QxDof-16" edge="1">
          <mxGeometry relative="1" as="geometry" />
        </mxCell>
        <mxCell id="F2HogwjRQ6rcZ85QxDof-17" value="DbFile_Used_Pct" style="ellipse;whiteSpace=wrap;html=1;aspect=fixed;rotation=0;" parent="UiscjDEskWGPPMpx3GH2-1" vertex="1">
          <mxGeometry x="280" y="300" width="90" height="90" as="geometry" />
        </mxCell>
        <mxCell id="F2HogwjRQ6rcZ85QxDof-18" value="Cpu_Used_Pct" style="ellipse;whiteSpace=wrap;html=1;aspect=fixed;rotation=0;" parent="UiscjDEskWGPPMpx3GH2-1" vertex="1">
          <mxGeometry x="400" y="210" width="90" height="90" as="geometry" />
        </mxCell>
        <mxCell id="F2HogwjRQ6rcZ85QxDof-19" value="Mem_Used_Pct" style="ellipse;whiteSpace=wrap;html=1;aspect=fixed;rotation=0;" parent="UiscjDEskWGPPMpx3GH2-1" vertex="1">
          <mxGeometry x="150" y="210" width="90" height="90" as="geometry" />
        </mxCell>
        <mxCell id="UiscjDEskWGPPMpx3GH2-6" value="" style="endArrow=classic;html=1;exitX=0;exitY=1;exitDx=0;exitDy=0;entryX=0.5;entryY=0;entryDx=0;entryDy=0;" edge="1" parent="UiscjDEskWGPPMpx3GH2-1" source="F2HogwjRQ6rcZ85QxDof-16" target="F2HogwjRQ6rcZ85QxDof-19">
          <mxGeometry width="50" height="50" relative="1" as="geometry">
            <mxPoint x="340" y="260" as="sourcePoint" />
            <mxPoint x="390" y="210" as="targetPoint" />
          </mxGeometry>
        </mxCell>
        <mxCell id="UiscjDEskWGPPMpx3GH2-7" value="" style="endArrow=classic;html=1;exitX=1;exitY=1;exitDx=0;exitDy=0;" edge="1" parent="UiscjDEskWGPPMpx3GH2-1" source="F2HogwjRQ6rcZ85QxDof-16">
          <mxGeometry width="50" height="50" relative="1" as="geometry">
            <mxPoint x="340" y="260" as="sourcePoint" />
            <mxPoint x="445" y="216" as="targetPoint" />
          </mxGeometry>
        </mxCell>
      </root>
    </mxGraphModel>
  </diagram>
</mxfile>
